<?xml version="1.0" standalone="no"?>
<!DOCTYPE svg PUBLIC "-//W3C//DTD SVG 20010904//EN"
 "http://www.w3.org/TR/2001/REC-SVG-20010904/DTD/svg10.dtd">
<svg version="1.0" xmlns="http://www.w3.org/2000/svg"
 width="500.000000pt" height="500.000000pt" viewBox="0 0 500.000000 500.000000"
 preserveAspectRatio="xMidYMid meet">

<g transform="translate(0.000000,500.000000) scale(0.100000,-0.100000)"
fill="#000000" stroke="none">
<path d="M2295 4889 c-181 -25 -321 -67 -485 -146 -103 -49 -123 -55 -199 -60
l-83 -6 4 -91 c4 -66 13 -115 36 -181 17 -49 35 -115 41 -145 22 -119 71 -542
71 -617 0 -28 3 -65 6 -82 l7 -31 807 0 807 0 6 143 c9 214 49 445 118 692 31
113 54 273 45 311 -5 19 -15 22 -86 28 -65 6 -98 16 -173 51 -147 69 -299 114
-460 135 -91 12 -375 11 -462 -1z m445 -24 c186 -21 331 -64 495 -147 46 -23
78 -31 137 -36 l78 -5 0 -72 c0 -40 -9 -104 -20 -146 -42 -156 -88 -347 -99
-409 -28 -164 -41 -274 -41 -347 0 -44 -3 -95 -6 -112 l-6 -31 -190 0 c-176 0
-189 1 -184 18 3 9 10 47 17 84 l11 68 27 -19 c15 -11 52 -22 82 -25 l54 -6
-58 21 c-80 29 -117 79 -117 158 0 58 14 88 55 123 11 10 15 17 8 18 -27 0
-73 -53 -89 -105 -16 -50 -16 -57 -1 -97 17 -43 16 -65 -9 -200 l-7 -38 -393
0 c-217 0 -394 3 -394 8 0 4 -7 39 -15 79 -15 72 -15 72 10 109 13 20 27 52
31 70 12 67 -44 161 -106 179 l-25 7 25 -18 c88 -64 100 -172 28 -244 -38 -39
-65 -50 -126 -51 -46 -1 -46 -1 -13 -9 36 -9 94 -3 122 11 14 7 18 -1 28 -52
7 -34 15 -67 18 -75 4 -12 -25 -14 -175 -14 l-180 0 -6 78 c-7 93 -33 345 -47
462 -16 122 -37 227 -61 290 -23 62 -48 179 -48 226 0 38 12 44 91 44 49 0 71
6 122 33 283 153 623 213 977 172z"/>
<path d="M2370 4782 c-25 -12 -43 -32 -62 -72 -15 -30 -28 -65 -28 -77 0 -19
-7 -22 -76 -28 -62 -6 -87 -4 -131 11 -54 18 -55 18 -69 -1 -21 -29 -18 -137
5 -184 20 -38 83 -101 101 -101 19 0 10 20 -26 55 -45 45 -64 91 -64 153 0 58
4 64 39 50 42 -16 729 -17 763 -1 15 7 44 13 64 13 30 0 44 -7 76 -40 44 -47
50 -89 18 -130 -29 -37 -25 -64 6 -42 48 34 58 117 20 173 -43 62 -136 88
-196 54 -41 -23 -57 -19 -64 19 -9 46 -30 87 -60 115 -51 48 -245 68 -316 33z
m270 -40 c24 -12 42 -32 57 -62 39 -81 38 -82 -74 -73 -54 4 -146 8 -206 8
-78 0 -107 3 -107 12 0 7 11 37 24 67 20 45 31 57 58 65 47 14 205 3 248 -17z"/>
<path d="M2146 4504 c-10 -27 3 -34 63 -34 64 0 71 -7 71 -77 0 -32 2 -33 40
-33 36 0 40 -2 40 -26 0 -23 3 -25 33 -22 24 2 33 8 35 26 3 19 -1 22 -33 22
l-36 0 3 53 3 52 108 3 107 3 -16 24 -16 25 -198 0 c-172 0 -199 -2 -204 -16z"/>
<path d="M2192 4338 c2 -18 12 -24 41 -29 35 -6 37 -5 37 23 0 26 -3 28 -41
28 -36 0 -40 -2 -37 -22z"/>
<path d="M2550 4340 c0 -12 9 -22 24 -26 34 -8 61 -40 49 -56 -6 -7 -29 -48
-52 -92 -53 -98 -64 -116 -73 -116 -3 0 -35 50 -69 111 l-63 111 -12 -49 -13
-48 57 -95 c53 -89 59 -95 92 -98 34 -3 37 0 62 50 33 64 97 180 102 185 4 4
96 -143 96 -153 0 -2 11 -22 25 -44 21 -34 31 -40 59 -40 23 0 35 5 40 18 3 9
10 24 16 32 14 22 110 192 110 197 0 2 11 21 25 43 19 29 33 41 60 46 25 4 35
11 35 25 0 17 -9 19 -110 19 -103 0 -110 -1 -110 -20 0 -16 7 -20 35 -20 62 0
58 -14 -54 -212 -18 -32 -36 -58 -39 -58 -8 0 -142 234 -142 248 0 12 24 22
51 22 12 0 19 7 19 20 0 19 -7 20 -110 20 -103 0 -110 -1 -110 -20z"/>
<path d="M1914 4341 c-57 -25 -72 -110 -29 -173 15 -23 46 -47 82 -65 51 -25
69 -28 148 -28 97 1 134 13 188 63 34 32 34 42 1 94 l-26 41 -13 -37 c-29 -84
-100 -123 -206 -113 -57 5 -100 25 -131 62 -25 28 -24 49 1 35 32 -16 60 -12
86 15 29 29 32 55 8 84 -20 24 -77 35 -109 22z"/>
<path d="M1854 3996 c-49 -22 -74 -61 -74 -118 0 -86 49 -138 130 -138 80 0
130 52 130 135 0 100 -94 161 -186 121z m92 -64 c26 -17 36 -53 23 -84 -29
-70 -129 -47 -129 29 0 44 69 80 106 55z"/>
<path d="M3040 3997 c-47 -16 -80 -68 -80 -124 0 -82 51 -133 132 -133 64 0
109 35 128 100 29 101 -76 194 -180 157z m97 -79 c31 -29 30 -71 -3 -97 -33
-26 -55 -26 -85 -3 -45 37 -17 122 39 122 14 0 36 -10 49 -22z"/>
<path d="M3125 3700 c-16 -7 -17 -9 -3 -9 9 -1 20 4 23 9 7 11 7 11 -20 0z"/>
<path d="M1265 4469 c-60 -38 -111 -74 -113 -79 -2 -6 -10 -10 -18 -10 -8 0
-14 -4 -14 -10 0 -5 -17 -18 -39 -29 -21 -11 -41 -27 -44 -36 -4 -8 -12 -15
-20 -15 -7 0 -31 -17 -53 -37 -23 -21 -64 -60 -92 -86 -29 -26 -52 -52 -52
-57 0 -6 -6 -10 -13 -10 -7 0 -21 -12 -32 -27 -11 -15 -39 -47 -62 -70 -24
-24 -43 -48 -43 -53 0 -5 -13 -19 -30 -31 -16 -12 -27 -26 -24 -31 3 -4 -1
-14 -8 -21 -7 -8 -22 -26 -33 -41 -11 -16 -26 -34 -33 -42 -7 -8 -14 -23 -15
-34 -1 -11 -6 -20 -12 -20 -6 0 -30 -37 -53 -82 -41 -80 -41 -82 -12 -50 16
18 30 39 30 46 0 8 7 16 15 20 8 3 15 10 15 17 0 6 9 24 21 40 11 16 17 29 13
29 -4 0 6 10 22 22 47 36 94 90 88 99 -3 5 1 9 9 9 8 0 17 10 21 23 3 13 17
29 31 35 15 7 24 16 21 21 -7 10 31 51 47 51 19 0 77 63 77 83 0 9 6 17 13 17
7 0 30 16 51 35 21 19 40 35 42 35 11 0 40 38 37 47 -2 6 12 14 32 17 20 4 46
18 57 32 12 13 28 24 35 24 7 0 13 5 13 10 0 6 7 10 15 10 8 0 15 5 15 10 0 6
7 10 16 10 8 0 13 3 10 8 -7 12 22 45 33 37 6 -3 11 -2 11 3 0 5 9 12 20 15
11 3 19 11 18 19 -2 8 9 14 30 16 21 2 32 9 32 19 0 9 3 14 6 10 6 -6 38 8 73
32 12 8 12 12 2 25 -8 9 -21 16 -30 15 -9 0 -65 -32 -126 -70z"/>
<path d="M3573 4525 c-14 -15 -8 -21 42 -45 17 -8 33 -19 37 -25 4 -5 13 -10
20 -11 33 -3 38 -5 38 -19 0 -8 9 -15 21 -15 13 0 18 -4 13 -12 -5 -8 -2 -9
10 -5 11 5 20 -1 27 -17 6 -13 22 -29 35 -35 13 -6 24 -15 24 -21 0 -5 4 -10
10 -10 5 0 26 -11 46 -25 20 -14 45 -25 56 -25 11 0 17 -3 15 -8 -3 -4 13 -23
35 -42 22 -19 48 -43 59 -52 10 -10 24 -18 29 -18 6 0 10 -6 10 -13 0 -17 58
-70 93 -85 15 -6 32 -23 37 -37 5 -14 16 -25 25 -25 8 0 15 -7 15 -15 0 -8 9
-23 20 -32 11 -10 20 -23 20 -30 0 -7 10 -18 23 -24 12 -7 32 -22 43 -35 12
-12 25 -20 28 -17 3 4 6 -3 6 -15 0 -11 9 -27 20 -35 11 -8 17 -16 14 -20 -3
-3 4 -10 15 -17 12 -6 19 -15 16 -20 -6 -10 42 -70 57 -70 6 0 4 8 -5 18 -8 9
-29 42 -46 72 -17 30 -35 54 -41 53 -5 -2 -10 4 -10 14 0 17 -39 74 -75 108
-11 11 -21 25 -22 30 -2 9 -199 221 -231 249 -7 6 -23 21 -34 34 -12 12 -26
22 -30 22 -5 0 -21 14 -35 30 -13 17 -31 30 -39 30 -7 0 -24 10 -36 21 -43 40
-202 149 -235 161 -18 7 -33 16 -33 20 0 4 -7 8 -15 8 -8 0 -15 5 -15 10 0 15
-43 11 -57 -5z"/>
<path d="M3555 4065 c-22 -8 -41 -15 -42 -15 -1 0 -10 -14 -19 -32 -11 -22
-14 -44 -10 -74 l5 -43 -57 -3 -57 -3 -3 -77 -3 -77 61 -7 60 -7 0 -46 c0 -78
48 -121 135 -121 114 0 227 104 250 232 10 52 -17 135 -60 185 -64 75 -184
116 -260 88z m266 -343 c-39 -76 -137 -142 -209 -142 -34 0 -86 49 -80 77 4
25 43 28 88 8 36 -16 40 -16 83 3 25 11 62 38 83 59 47 48 61 45 35 -5z"/>
<path d="M1303 4057 c-56 -21 -120 -74 -149 -123 -90 -154 39 -373 221 -374
55 0 106 25 126 61 6 12 11 42 11 66 l-1 43 39 0 c68 0 70 3 70 91 l0 79 -55
0 -55 0 6 44 c7 51 -14 97 -53 115 -31 14 -119 13 -160 -2z m-81 -342 c65 -59
112 -73 161 -50 73 34 113 -3 62 -57 -61 -66 -206 -5 -265 112 -11 22 -18 40
-14 40 3 0 29 -20 56 -45z"/>
<path d="M395 3520 c-3 -5 -1 -10 4 -10 6 0 11 5 11 10 0 6 -2 10 -4 10 -3 0
-8 -4 -11 -10z"/>
<path d="M610 3490 l0 -30 65 0 64 0 7 -36 c11 -57 -2 -227 -19 -260 -18 -35
-52 -66 -94 -88 -41 -20 -132 -21 -181 0 -47 19 -102 72 -102 98 0 16 3 17 12
8 7 -7 28 -12 48 -12 47 0 74 28 74 76 0 46 -33 73 -90 74 -113 0 -139 -150
-40 -237 58 -52 123 -73 218 -73 90 0 148 19 197 64 55 51 65 85 71 241 l5
140 68 3 c67 3 67 3 67 32 l0 30 -185 0 -185 0 0 -30z"/>
<path d="M1060 3425 c0 -21 5 -25 30 -25 18 0 33 -6 36 -15 6 -16 -188 -290
-217 -306 -10 -5 -29 -9 -43 -9 -21 0 -26 -5 -26 -25 l0 -25 125 0 125 0 0 24
c0 22 -5 25 -42 28 -23 2 -43 8 -45 14 -2 6 8 26 22 43 l27 31 163 0 164 0 20
-29 c33 -46 28 -61 -19 -61 -36 0 -40 -2 -40 -25 l0 -25 130 0 130 0 0 25 c0
21 -5 25 -28 25 -34 0 -59 25 -138 140 -32 47 -61 87 -64 90 -3 3 -22 30 -43
60 -64 96 -53 90 -166 90 l-101 0 0 -25z m212 -112 c30 -43 58 -84 62 -90 6
-10 -21 -13 -120 -13 l-126 0 17 28 c28 43 106 152 109 152 1 0 28 -35 58 -77z"/>
<path d="M1660 3425 c0 -22 4 -24 58 -27 l57 -3 0 -160 0 -160 -57 -3 c-54 -3
-58 -5 -58 -27 l0 -25 160 0 160 0 0 25 c0 22 -4 24 -57 27 l-58 3 -3 63 -3
62 96 -1 c64 -1 100 -5 108 -14 7 -7 38 -47 71 -89 l59 -76 78 0 c78 0 79 0
79 25 0 23 -4 25 -41 25 -22 0 -49 5 -59 10 -21 11 -90 97 -90 111 0 5 13 9
29 9 104 0 178 75 151 155 -26 78 -105 95 -437 95 l-243 0 0 -25z m573 -48
c22 -14 27 -25 27 -57 0 -67 -22 -74 -227 -78 l-173 -4 0 82 0 82 173 -4 c145
-2 177 -6 200 -21z"/>
<path d="M2430 3425 c0 -24 3 -25 54 -25 30 0 58 -5 61 -11 9 -14 12 -273 4
-296 -4 -13 -20 -19 -60 -23 -47 -4 -54 -8 -57 -27 l-3 -23 166 0 166 0 -3 23
c-3 19 -10 22 -60 25 -56 3 -57 4 -63 36 -4 18 -5 46 -3 62 l3 29 80 3 c44 2
89 1 100 -2 11 -3 49 -44 85 -90 l65 -85 83 0 c81 -1 83 0 80 22 -2 16 -11 23
-33 25 -51 4 -71 11 -91 29 -23 21 -74 87 -74 96 0 4 17 7 38 7 40 0 110 28
128 51 21 26 26 75 10 112 -30 72 -106 87 -433 87 l-243 0 0 -25z m572 -44
c27 -14 38 -44 31 -85 -8 -42 -50 -51 -233 -51 l-165 0 -3 64 c-2 35 -1 70 2
78 5 12 35 14 174 11 112 -3 176 -8 194 -17z"/>
<path d="M3400 3426 c0 -21 5 -25 32 -28 20 -2 34 -9 35 -18 3 -15 -186 -274
-216 -297 -9 -7 -28 -13 -43 -13 -23 0 -28 -4 -28 -25 l0 -25 125 0 125 0 0
25 c0 23 -4 25 -40 25 -51 0 -59 18 -29 59 l23 31 167 0 168 0 21 -30 c30 -42
20 -60 -30 -60 -36 0 -40 -2 -40 -25 l0 -25 135 0 135 0 0 25 c0 21 -5 25 -29
25 -37 0 -45 9 -189 210 l-118 165 -102 3 -102 3 0 -25z m222 -131 l58 -85
-130 0 -130 0 61 85 c34 47 66 85 72 85 7 -1 38 -39 69 -85z"/>
<path d="M4000 3426 c0 -24 3 -26 49 -26 29 0 53 -6 60 -14 8 -9 11 -61 9
-162 l-3 -149 -57 -3 c-54 -3 -58 -5 -58 -27 l0 -25 212 0 c224 0 316 10 386
42 142 67 148 271 8 336 -79 38 -126 44 -368 49 l-238 5 0 -26z m515 -46 c21
-7 54 -27 72 -45 30 -30 33 -38 33 -95 0 -132 -67 -170 -297 -170 l-123 0 0
166 0 166 138 -5 c75 -2 155 -10 177 -17z"/>
<path d="M330 2916 c0 -20 6 -24 39 -30 43 -7 55 -20 109 -116 156 -281 145
-265 184 -268 41 -4 39 -6 128 163 29 55 56 103 59 107 3 4 41 -54 83 -130 74
-133 77 -137 111 -140 32 -3 39 1 62 37 14 22 25 42 25 44 0 4 133 246 153
277 7 12 28 23 50 27 31 5 37 10 37 29 0 24 0 24 -120 24 l-120 0 0 -25 c0
-22 4 -25 40 -25 38 0 45 -6 41 -37 -1 -6 -30 -63 -65 -126 -35 -63 -66 -122
-69 -131 -13 -33 -13 -33 -107 139 -18 33 -42 75 -52 94 -25 44 -17 61 27 61
31 0 35 3 35 25 l0 26 -122 -3 c-119 -3 -123 -4 -126 -25 -2 -16 2 -23 13 -23
24 0 75 -32 75 -47 0 -8 -17 -44 -38 -81 -21 -37 -51 -93 -67 -124 -17 -32
-33 -58 -37 -58 -6 0 -40 58 -120 208 -22 40 -37 79 -34 87 3 9 19 15 41 15
31 0 35 3 35 25 l0 25 -135 0 -135 0 0 -24z"/>
<path d="M170 2864 c0 -14 4 -23 9 -20 5 3 7 15 4 26 -7 28 -13 25 -13 -6z"/>
<path d="M2495 2874 c-105 -27 -165 -66 -185 -120 -15 -38 -12 -109 6 -146 55
-116 309 -153 430 -62 l32 23 12 -29 c22 -53 39 -37 42 38 3 65 4 67 31 70 21
3 27 9 27 28 l0 25 -122 -3 c-115 -3 -123 -4 -123 -23 0 -17 8 -20 55 -23 30
-2 59 -7 63 -11 12 -12 -37 -66 -77 -85 -54 -25 -190 -22 -240 7 -55 31 -78
66 -78 118 -1 61 24 104 75 131 57 29 204 31 257 3 36 -18 70 -51 70 -67 0 -4
11 -8 25 -8 24 0 25 3 25 60 0 53 -2 60 -20 60 -11 0 -20 -7 -20 -15 0 -20
-16 -19 -67 6 -43 21 -173 34 -218 23z"/>
<path d="M4822 2860 c0 -14 2 -19 5 -12 2 6 2 18 0 25 -3 6 -5 1 -5 -13z"/>
<path d="M1335 2850 c-10 -17 1 -23 47 -27 23 -2 46 -9 50 -16 9 -14 11 -218
2 -241 -4 -11 -19 -16 -48 -16 -47 0 -57 -5 -49 -26 4 -11 33 -14 134 -14 121
0 129 1 129 19 0 17 -8 20 -47 23 l-48 3 -3 48 -3 47 88 0 88 -1 40 -56 c59
-83 59 -83 131 -83 57 0 64 2 64 20 0 16 -7 20 -37 20 -21 0 -45 6 -53 13 -28
22 -70 79 -65 87 2 4 23 10 46 14 58 9 79 23 95 61 17 42 4 86 -34 112 -24 16
-55 18 -273 21 -178 3 -249 0 -254 -8z m470 -42 c33 -15 42 -51 21 -83 -16
-25 -17 -25 -171 -25 l-155 0 0 60 0 60 140 0 c85 0 149 -5 165 -12z"/>
<path d="M1980 2841 c0 -17 8 -20 48 -23 l47 -3 0 -130 0 -130 -47 -3 c-40 -3
-48 -6 -48 -23 0 -18 8 -19 136 -19 124 0 135 2 132 18 -2 13 -15 18 -51 20
-58 4 -59 7 -55 157 l3 110 50 5 c37 4 51 9 53 23 3 15 -8 17 -132 17 -128 0
-136 -1 -136 -19z"/>
<path d="M2930 2840 c0 -13 7 -19 23 -18 12 0 34 0 50 -1 l27 -1 0 -135 0
-135 -50 0 c-43 0 -50 -3 -50 -20 0 -19 7 -20 255 -20 l255 0 0 80 c0 73 -2
80 -20 80 -14 0 -21 -9 -26 -37 -3 -21 -16 -48 -27 -60 -19 -22 -29 -23 -144
-23 l-124 0 3 133 3 132 48 3 c39 3 47 6 47 23 0 18 -8 19 -135 19 -127 0
-135 -1 -135 -20z"/>
<path d="M3502 2843 c3 -19 6 -20 63 -22 l35 -1 0 -135 0 -135 -50 0 c-43 0
-50 -3 -50 -20 0 -20 7 -20 275 -20 l275 0 0 75 c0 67 -2 75 -19 75 -15 0 -21
-10 -26 -40 -11 -64 -28 -70 -192 -70 l-143 0 0 60 0 60 78 0 c81 0 102 -9
102 -42 0 -11 7 -18 20 -18 18 0 20 7 20 80 0 73 -2 80 -20 80 -13 0 -20 -7
-20 -18 0 -33 -21 -42 -102 -42 l-78 0 0 55 0 55 43 1 c23 0 89 0 147 0 94 -1
107 -3 123 -22 9 -12 17 -32 17 -45 0 -17 6 -24 20 -24 18 0 20 7 20 65 l0 65
-271 0 c-252 0 -270 -1 -267 -17z"/>
<path d="M4110 2840 c0 -15 7 -20 29 -20 29 0 57 -18 126 -81 22 -21 55 -50
73 -66 30 -26 33 -34 30 -73 l-3 -45 -47 -3 c-40 -3 -48 -6 -48 -23 0 -18 8
-19 135 -19 127 0 135 1 135 19 0 17 -8 20 -47 23 l-48 3 -3 46 -3 46 86 79
c75 70 101 86 153 100 6 2 12 10 12 19 0 12 -17 15 -101 15 -90 0 -100 -2 -97
-17 2 -11 14 -19 31 -21 15 -2 27 -7 27 -12 0 -16 -119 -120 -137 -120 -11 0
-133 110 -133 120 0 5 12 10 27 12 17 2 29 10 31 21 3 15 -7 17 -112 17 -109
0 -116 -1 -116 -20z"/>
<path d="M4831 2764 c0 -11 3 -14 6 -6 3 7 2 16 -1 19 -3 4 -6 -2 -5 -13z"/>
<path d="M147 2710 c-12 -71 -14 -191 -3 -187 7 2 12 40 14 95 4 102 -1 146
-11 92z"/>
<path d="M4841 2714 c0 -11 3 -14 6 -6 3 7 2 16 -1 19 -3 4 -6 -2 -5 -13z"/>
<path d="M4842 2615 c1 -44 5 -90 9 -102 5 -13 2 -44 -5 -73 -8 -30 -9 -50 -3
-50 9 0 7 -25 -9 -134 -4 -27 -3 -36 5 -32 15 10 14 -16 -3 -39 -7 -10 -11
-26 -9 -36 3 -9 -1 -28 -8 -40 -7 -13 -14 -39 -16 -58 -2 -19 -8 -40 -12 -46
-10 -12 -26 -76 -22 -89 1 -5 -3 -22 -8 -37 -7 -20 -7 -29 0 -29 6 0 3 -7 -5
-16 -9 -8 -17 -21 -17 -27 -1 -7 -4 -23 -6 -37 -2 -14 -4 -37 -4 -52 0 -16 -4
-28 -8 -28 -15 0 -51 -69 -51 -96 0 -33 -43 -122 -75 -156 -14 -15 -25 -32
-25 -38 0 -7 -9 -23 -20 -37 -11 -14 -20 -32 -20 -39 0 -8 -4 -14 -9 -14 -5 0
-14 -14 -21 -30 -7 -16 -16 -30 -21 -30 -5 0 -7 -11 -3 -24 4 -19 -2 -33 -28
-60 -49 -52 -57 -63 -50 -70 3 -4 -4 -9 -16 -13 -12 -3 -22 -11 -22 -17 0 -7
-11 -23 -25 -36 -14 -13 -25 -28 -25 -33 0 -5 -10 -19 -23 -31 -13 -12 -32
-36 -42 -54 -11 -18 -27 -35 -37 -38 -21 -6 -24 -24 -5 -24 11 -1 -41 -45 -53
-45 -11 0 -96 -70 -136 -112 -22 -24 -48 -43 -57 -43 -9 0 -21 -9 -27 -20 -6
-11 -25 -27 -42 -36 -18 -9 -38 -23 -46 -30 -7 -8 -23 -19 -34 -25 -17 -9 -18
-13 -7 -20 11 -7 9 -9 -6 -9 -11 0 -26 -9 -32 -20 -7 -11 -27 -23 -45 -28 -18
-5 -32 -14 -30 -21 1 -6 -11 -11 -27 -11 -16 0 -36 -7 -45 -15 -8 -8 -21 -15
-28 -15 -10 0 -10 -2 -1 -8 9 -6 4 -13 -17 -26 -17 -9 -34 -15 -39 -12 -5 3
-11 0 -14 -8 -4 -9 -14 -12 -26 -9 -12 3 -26 -3 -37 -16 -10 -12 -30 -21 -44
-21 -14 0 -37 -6 -52 -14 -15 -8 -40 -17 -57 -21 -17 -4 -31 -10 -31 -15 0 -5
-13 -11 -30 -15 -16 -4 -30 -11 -30 -16 0 -12 46 -30 62 -25 7 3 26 7 41 10
15 4 25 11 22 16 -3 6 4 10 17 10 13 0 46 10 73 24 28 13 86 41 130 62 74 35
173 91 185 103 7 8 42 29 65 40 11 5 33 21 49 35 16 14 32 26 36 26 3 0 24 16
46 35 21 19 44 38 49 42 97 73 125 97 125 107 0 6 16 22 36 35 47 32 122 109
140 143 7 14 27 36 44 48 16 12 30 26 30 31 0 5 6 17 14 26 40 49 86 114 86
121 0 5 11 19 25 32 14 13 25 28 25 35 0 6 16 35 35 65 36 55 69 120 120 235
14 33 33 73 41 88 8 16 14 37 14 47 0 9 7 23 15 30 8 7 15 22 15 34 0 24 28
114 40 131 14 19 22 75 11 75 -8 0 -6 8 3 23 13 21 22 57 32 133 2 20 6 39 9
44 2 4 7 47 11 96 3 49 8 92 10 96 2 3 -2 8 -8 11 -10 3 -10 7 -1 19 17 20 18
56 9 223 -9 154 -28 225 -24 90z"/>
<path d="M129 2450 c-4 -90 0 -132 14 -149 9 -11 9 -15 -1 -18 -6 -3 -10 -8
-8 -12 3 -4 6 -36 6 -72 1 -35 6 -82 12 -103 5 -22 12 -59 14 -83 2 -24 10
-62 18 -84 8 -22 12 -48 9 -59 -3 -10 2 -33 11 -51 9 -18 16 -40 16 -50 0 -10
4 -20 9 -23 5 -4 12 -25 16 -49 4 -23 13 -49 20 -57 8 -8 13 -19 13 -23 -1
-28 144 -340 170 -366 8 -8 22 -33 32 -56 9 -22 25 -46 34 -54 9 -7 16 -19 16
-25 0 -6 11 -23 25 -38 14 -15 25 -30 25 -33 0 -6 13 -23 42 -56 10 -10 18
-22 18 -26 0 -3 18 -23 40 -44 22 -21 40 -42 40 -48 0 -13 105 -121 118 -121
6 0 24 -16 39 -35 15 -20 57 -58 93 -85 36 -27 79 -61 95 -75 47 -40 119 -95
126 -95 4 0 37 -21 75 -46 85 -57 346 -184 378 -184 8 0 16 -5 18 -11 5 -16
77 -29 104 -18 27 10 32 28 9 30 -32 3 -36 4 -43 16 -4 6 -20 15 -36 19 -17 4
-41 13 -55 20 -14 8 -34 14 -44 14 -10 0 -31 10 -47 21 -16 12 -36 19 -45 16
-9 -4 -18 -1 -21 7 -3 8 -14 12 -25 9 -10 -3 -19 -1 -19 5 0 5 -10 12 -22 16
-19 5 -21 8 -8 16 11 7 12 10 2 10 -7 0 -20 7 -28 15 -9 8 -29 15 -45 15 -16
0 -28 5 -27 11 2 7 -10 15 -25 20 -16 4 -37 17 -46 28 -10 12 -27 21 -37 21
-14 0 -16 2 -6 9 10 6 6 13 -15 26 -15 10 -34 25 -41 32 -7 7 -19 13 -26 13
-7 0 -25 14 -41 30 -16 17 -33 30 -38 30 -5 0 -35 27 -68 59 -32 33 -68 62
-79 66 -11 3 -20 11 -20 16 0 5 -6 9 -12 9 -18 1 -76 50 -59 50 8 0 -2 16 -22
35 -21 20 -37 41 -37 48 -1 7 -14 23 -30 37 -17 13 -30 29 -30 35 0 5 -23 34
-50 64 -28 30 -50 59 -50 64 0 5 -14 22 -31 38 -24 23 -30 34 -25 54 4 15 2
25 -4 25 -6 0 -16 14 -21 30 -6 17 -15 30 -20 30 -5 0 -9 7 -9 15 0 8 -4 15
-8 15 -5 0 -15 17 -23 37 -8 20 -27 53 -43 72 -34 43 -69 118 -68 145 1 21
-37 96 -48 96 -4 0 -10 30 -13 66 -3 37 -10 70 -17 74 -7 5 -14 30 -15 56 -3
57 -14 104 -28 122 -10 13 -26 79 -31 132 -1 14 -7 34 -13 45 -6 10 -9 43 -6
74 3 31 0 74 -6 96 -8 29 -8 41 1 46 8 5 7 22 -5 61 l-15 53 -3 -65z"/>
<path d="M1325 2418 c-83 -31 -142 -89 -170 -167 -40 -113 12 -234 129 -301
41 -24 63 -30 111 -30 52 0 66 4 94 28 30 25 35 35 39 85 l4 57 54 0 54 0 0
79 0 79 -31 6 c-17 3 -42 6 -54 6 -21 0 -22 4 -21 55 1 47 -3 58 -26 82 -23
23 -37 27 -90 30 -35 1 -76 -3 -93 -9z m-84 -342 c68 -61 107 -73 165 -51 77
29 111 -5 58 -59 -58 -57 -181 -14 -249 86 -55 83 -47 90 26 24z"/>
<path d="M3529 2415 c-35 -19 -53 -65 -45 -115 l6 -39 -57 -3 -58 -3 -3 -74
c-3 -86 0 -91 71 -91 47 0 48 -1 47 -27 -4 -60 1 -77 36 -109 31 -30 42 -34
89 -34 183 0 315 204 235 362 -45 90 -139 148 -236 148 -33 -1 -71 -7 -85 -15z
m291 -334 c-40 -78 -131 -141 -206 -141 -57 0 -113 79 -68 97 8 3 39 -2 68
-12 52 -18 54 -18 98 3 24 12 59 38 78 57 44 46 55 44 30 -4z"/>
<path d="M1686 2213 c-3 -38 -6 -126 -7 -196 -1 -123 0 -130 23 -155 42 -46
152 -185 180 -228 62 -96 60 -74 57 -809 l-4 -669 60 -13 c125 -26 323 -43
493 -43 167 0 455 21 532 38 l35 8 7 109 c4 61 7 362 7 670 0 554 1 590 35
667 17 40 180 262 214 292 21 18 22 28 22 170 0 83 -3 168 -6 189 l-7 37 -817
0 -817 0 -7 -67z m122 19 c2 -13 21 -41 43 -63 34 -34 45 -39 87 -39 64 0 108
28 133 86 23 51 45 53 42 5 -3 -73 -85 -140 -174 -142 -44 -1 -44 -1 -12 -10
19 -6 48 -6 73 0 l40 9 0 -369 0 -369 -37 0 -38 0 -1 88 c-2 108 -24 170 -94
267 -58 78 -136 174 -158 192 -13 10 -14 39 -7 185 4 95 9 176 12 181 3 4 24
7 46 5 35 -3 43 -7 45 -26z m202 16 c0 -42 -76 -63 -112 -31 -35 32 -23 43 47
43 43 0 65 -4 65 -12z m174 -258 c9 -140 21 -316 26 -391 6 -74 10 -163 10
-197 l0 -62 -80 0 -80 0 7 376 6 376 28 27 c26 26 49 85 49 126 0 11 3 15 9
10 5 -6 16 -125 25 -265z m100 232 c3 -21 12 -90 21 -153 53 -410 67 -512 75
-582 5 -42 12 -93 16 -112 l6 -35 -74 0 -75 0 -12 158 c-7 86 -16 234 -22 327
-5 94 -13 226 -18 295 -4 69 -6 128 -4 133 2 4 21 7 42 7 37 0 39 -2 45 -38z
m407 33 c5 -5 1 -54 -26 -275 -9 -74 -20 -171 -25 -215 -22 -202 -31 -275 -41
-348 l-11 -78 -82 3 -81 3 -11 75 c-6 41 -16 120 -23 175 -7 55 -18 145 -26
200 -7 55 -21 159 -30 230 -9 72 -20 151 -24 177 -5 26 -6 50 -3 53 7 6 377 7
383 0z m111 -150 c-2 -82 -10 -274 -18 -425 -7 -151 -14 -290 -14 -307 l0 -33
-78 0 -78 0 12 93 c6 50 17 139 23 197 23 198 40 345 57 488 l18 143 40 -3 41
-3 -3 -150z m58 119 c0 -40 12 -67 45 -104 22 -25 23 -29 29 -402 l6 -378 -72
0 -71 0 6 173 c4 94 11 296 17 447 6 151 13 281 15 288 9 25 25 11 25 -24z
m78 -6 c34 -76 97 -111 166 -94 40 10 85 54 97 97 12 38 13 39 59 39 l47 0 7
-165 7 -165 -63 -78 c-173 -210 -218 -301 -218 -444 l0 -68 -34 0 c-33 0 -33
1 -40 53 -3 28 -6 194 -6 368 l0 317 40 -9 c25 -6 54 -6 73 0 l32 9 -41 1
c-98 2 -174 71 -174 157 0 39 27 28 48 -18z m197 31 c11 -17 -36 -59 -67 -59
-30 0 -68 31 -68 55 0 12 14 15 64 15 36 0 68 -5 71 -11z m-1100 -1051 c3 -13
4 -210 3 -438 l-3 -415 -37 -3 -38 -3 0 434 c0 238 3 437 7 440 3 4 19 7 34 7
21 0 30 -6 34 -22z m185 -418 l0 -440 -80 0 -80 0 0 433 c0 239 3 437 7 440 3
4 39 7 80 7 l73 0 0 -440z m175 -5 l0 -440 -75 0 -75 0 -3 170 c-2 94 0 293 3
443 l7 273 72 -3 71 -3 0 -440z m183 3 l-3 -443 -69 -3 c-49 -2 -72 1 -77 10
-10 15 -12 838 -3 862 5 13 22 16 80 16 l74 0 -2 -442z m190 -5 l2 -443 -80 0
-80 0 0 438 c0 241 3 442 7 446 4 4 39 5 78 4 l70 -3 3 -442z m135 438 l38 -1
-3 -437 -3 -438 -67 -3 -68 -3 0 440 c0 410 1 440 18 443 9 3 24 3 32 2 8 -1
32 -3 53 -3z m147 -229 c0 -126 -3 -324 -7 -440 l-6 -212 -39 0 -38 0 0 440 0
440 45 0 45 0 0 -228z m-830 -758 c0 -88 -3 -91 -93 -78 l-62 9 -3 72 -3 72
58 3 c104 5 103 6 103 -78z m180 -16 l0 -91 -46 7 c-26 3 -62 6 -80 6 l-34 0
0 84 0 85 48 3 c26 2 62 1 80 -1 l32 -3 0 -90z m531 20 c-1 -40 -5 -75 -7 -77
-3 -3 -31 -7 -64 -9 l-60 -4 0 83 0 84 67 -2 68 -1 -4 -74z m107 9 c2 -56 0
-66 -15 -70 -10 -3 -28 -8 -40 -12 -22 -6 -23 -4 -23 68 0 79 3 83 48 81 26
-1 27 -3 30 -67z m-1004 28 c4 -19 4 -50 1 -68 -6 -31 -9 -33 -41 -29 l-34 4
0 64 0 64 34 0 c31 0 34 -3 40 -35z m546 -55 l0 -91 -77 3 -78 3 -1 70 c-1
108 -3 105 82 105 l74 0 0 -90z m188 8 l-3 -83 -77 -3 -78 -3 0 86 0 85 80 0
81 0 -3 -82z"/>
</g>
</svg>
